<?xml version="1.0" encoding="iso-8859-1"?>
<!-- Generator: Adobe Illustrator 19.0.0, SVG Export Plug-In . SVG Version: 6.00 Build 0)  -->
<svg version="1.1" id="Capa_1" xmlns="http://www.w3.org/2000/svg" xmlns:xlink="http://www.w3.org/1999/xlink" x="0px" y="0px"
	 viewBox="0 0 511.993 511.993" style="enable-background:new 0 0 511.993 511.993;" xml:space="preserve">
<linearGradient id="SVGID_1_" gradientUnits="userSpaceOnUse" x1="69.654" y1="448.2119" x2="416.1364" y2="101.7296" gradientTransform="matrix(1.0449 0 0 -1.0449 2.1993 543.3086)">
	<stop  offset="0" style="stop-color:#84CAFF"/>
	<stop  offset="1" style="stop-color:#00A6FF"/>
</linearGradient>
<circle style="fill:url(#SVGID_1_);" cx="255.996" cy="255.996" r="255.996"/>
<linearGradient id="SVGID_2_" gradientUnits="userSpaceOnUse" x1="124.8952" y1="214.5292" x2="353.3952" y2="214.5292" gradientTransform="matrix(1.0449 0 0 -1.0449 2.1993 543.3086)">
	<stop  offset="0" style="stop-color:#D3D1D6"/>
	<stop  offset="1" style="stop-color:#8B8992"/>
</linearGradient>
<path style="fill:url(#SVGID_2_);" d="M83.937,239.624c0,95.028,77.035,172.064,172.064,172.064s172.064-77.035,172.064-172.064
	c0-4.377-0.166-8.715-0.487-13.011H84.423C84.103,230.909,83.937,235.246,83.937,239.624z"/>
<linearGradient id="SVGID_3_" gradientUnits="userSpaceOnUse" x1="124.8952" y1="223.0028" x2="353.3952" y2="223.0028" gradientTransform="matrix(1.0449 0 0 -1.0449 2.1993 543.3086)">
	<stop  offset="0" style="stop-color:#615F66"/>
	<stop  offset="1" style="stop-color:#3C3B41"/>
</linearGradient>
<path style="fill:url(#SVGID_3_);" d="M181.167,226.613v92.537c0,41.327,33.502,74.83,74.83,74.83s74.83-33.502,74.83-74.83v-92.537
	L181.167,226.613L181.167,226.613z"/>
<linearGradient id="SVGID_4_" gradientUnits="userSpaceOnUse" x1="124.8952" y1="332.4258" x2="353.3952" y2="332.4258" gradientTransform="matrix(1.0449 0 0 -1.0449 2.1993 543.3086)">
	<stop  offset="0" style="stop-color:#5B5A5F"/>
	<stop  offset="1" style="stop-color:#000000"/>
</linearGradient>
<rect x="52.641" y="158.206" style="fill:url(#SVGID_4_);" width="406.71" height="75.514"/>
<linearGradient id="SVGID_5_" gradientUnits="userSpaceOnUse" x1="124.8952" y1="214.5307" x2="353.3952" y2="214.5307" gradientTransform="matrix(1.0449 0 0 -1.0449 2.1993 543.3086)">
	<stop  offset="0" style="stop-color:#FFFFFF"/>
	<stop  offset="1" style="stop-color:#AEADB3"/>
</linearGradient>
<circle style="fill:url(#SVGID_5_);" cx="255.996" cy="319.149" r="59.84"/>
<linearGradient id="SVGID_6_" gradientUnits="userSpaceOnUse" x1="124.8952" y1="214.5307" x2="353.3952" y2="214.5307" gradientTransform="matrix(1.0449 0 0 -1.0449 2.1993 543.3086)">
	<stop  offset="0" style="stop-color:#615F66"/>
	<stop  offset="1" style="stop-color:#3C3B41"/>
</linearGradient>
<circle style="fill:url(#SVGID_6_);" cx="255.996" cy="319.149" r="42.513"/>
<linearGradient id="SVGID_7_" gradientUnits="userSpaceOnUse" x1="124.8952" y1="214.5307" x2="353.3952" y2="214.5307" gradientTransform="matrix(1.0449 0 0 -1.0449 2.1993 543.3086)">
	<stop  offset="0" style="stop-color:#5B5A5F"/>
	<stop  offset="1" style="stop-color:#000000"/>
</linearGradient>
<circle style="fill:url(#SVGID_7_);" cx="255.996" cy="319.149" r="22.85"/>
<linearGradient id="SVGID_8_" gradientUnits="userSpaceOnUse" x1="254.1102" y1="220.9507" x2="273.5002" y2="220.9507" gradientTransform="matrix(1.0449 0 0 -1.0449 2.1993 543.3086)">
	<stop  offset="0" style="stop-color:#8B8992"/>
	<stop  offset="1" style="stop-color:#D3D1D6;stop-opacity:0"/>
</linearGradient>
<circle style="fill:url(#SVGID_8_);" cx="277.845" cy="312.441" r="10.13"/>
<g>
</g>
<g>
</g>
<g>
</g>
<g>
</g>
<g>
</g>
<g>
</g>
<g>
</g>
<g>
</g>
<g>
</g>
<g>
</g>
<g>
</g>
<g>
</g>
<g>
</g>
<g>
</g>
<g>
</g>
</svg>
