<svg id="Layer_3" enable-background="new 0 0 64 64" height="512" viewBox="0 0 64 64" width="512" xmlns="http://www.w3.org/2000/svg"><g><path d="m49 2h-34l-8 60h50z" fill="#606060"/><path d="m36 62-1-60h-6l-1 60z" fill="#f2c351"/><path d="m53 62-7-60h3l8 60z" fill="#d5cec2"/><path d="m11 62 7-60h-3l-8 60z" fill="#d5cec2"/><g><path d="m60.999 33h-2v-6c0-.552-.448-1-1-1h-2v-2h2c1.654 0 3 1.346 3 3z" fill="#e7e4dd"/></g><path d="m62 39h-4l1-6h2z" fill="#606060"/><g><path d="m5 33h-2v-6c0-1.654 1.346-3 3-3h2v2h-2c-.552 0-1 .448-1 1z" fill="#e7e4dd"/></g><path d="m2 39h4l-1-6h-2z" fill="#606060"/><g><path d="m31 2h2v17h-2z" fill="#f7d881"/></g><g><path d="m31 31h2v30.999h-2z" fill="#f7d881"/></g><path d="m25.003 2c-.833 0-1.285 0-2.007 0l-.409 4.909 1.993.167z" fill="#f2c351"/><g><path d="m21.097 11.988h3.973v2h-3.973z" fill="#f2c351" transform="matrix(.083 -.997 .997 .083 8.218 34.91)"/></g><g><path d="m18.021 32.672h6.678v2h-6.678z" fill="#f2c351" transform="matrix(.083 -.997 .997 .083 -13.973 52.154)"/></g><g><path d="m18.591 41.958h3.991v2h-3.991z" fill="#f2c351" transform="matrix(.083 -.997 .997 .083 -23.936 59.896)"/></g><g><path d="m17.911 50.016h4.008v2h-4.008z" fill="#f2c351" transform="matrix(.083 -.997 .997 .083 -32.582 66.614)"/></g><path d="m20.003 62 .406-4.876-1.992-.167-.421 5.043z" fill="#f2c351"/><path d="m39.419 7.076 1.993-.167-.409-4.909c-.722 0-1.173 0-2.007 0z" fill="#f2c351"/><g><path d="m39.915 11.002h2v3.973h-2z" fill="#f2c351" transform="matrix(.997 -.083 .083 .997 -.938 3.444)"/></g><g><path d="m41.639 30.333h2v6.678h-2z" fill="#f2c351" transform="matrix(.997 -.083 .083 .997 -2.65 3.658)"/></g><g><path d="m42.413 40.962h2v3.991h-2z" fill="#f2c351" transform="matrix(.997 -.083 .083 .997 -3.418 3.755)"/></g><g><path d="m43.084 49.012h2v4.008h-2z" fill="#f2c351" transform="matrix(.997 -.083 .083 .997 -4.086 3.839)"/></g><path d="m45.583 56.957-1.993.167.406 4.876h2.007z" fill="#f2c351"/><path d="m55 31h-46c-.552 0-1-.448-1-1v-10c0-.552.448-1 1-1h46c.552 0 1 .448 1 1v10c0 .552-.448 1-1 1z" fill="#669e4f"/><g fill="#78b75b"><path d="m12 23h8v4h-8z"/><path d="m44 23h8v4h-8z"/><path d="m28 23h8v4h-8z"/></g><path d="m44 23v4h3.135c1.559-.876 2.767-2.295 3.378-4z" fill="#96cc7f"/><path d="m28 23v4h3.135c1.559-.876 2.767-2.295 3.378-4z" fill="#96cc7f"/><path d="m12 23v4h3.135c1.559-.876 2.767-2.295 3.378-4z" fill="#96cc7f"/></g></svg>